<?xml version="1.0" standalone="no"?>
<!DOCTYPE svg PUBLIC "-//W3C//DTD SVG 20010904//EN"
 "http://www.w3.org/TR/2001/REC-SVG-20010904/DTD/svg10.dtd">
<svg version="1.0" xmlns="http://www.w3.org/2000/svg"
 width="789.000000pt" height="444.000000pt" viewBox="-120 0 789.000000 444.000000"
 preserveAspectRatio="xMidYMid meet">

<g transform="translate(0.000000,444.000000) scale(0.100000,-0.100000)"
fill="#000000" stroke="none">
<path d="M4700 3989 c-25 -10 -257 -101 -516 -203 -635 -249 -740 -294 -892
-385 -196 -118 -487 -335 -619 -464 -29 -28 -54 -49 -56 -46 -2 2 -16 25 -30
51 -15 26 -48 63 -74 83 -81 62 -105 65 -503 65 -416 0 -428 -2 -513 -80 -88
-80 -100 -118 -105 -337 l-4 -183 -162 -1 c-88 0 -243 -4 -342 -8 -179 -6
-182 -7 -230 -37 -85 -52 -96 -80 -170 -434 -36 -173 -66 -338 -66 -366 0 -60
25 -114 74 -161 72 -69 -19 -65 1323 -65 975 0 1220 3 1256 13 58 18 121 81
142 144 31 91 17 164 -46 233 -56 60 -93 75 -206 81 l-95 6 -43 170 c-23 94
-43 173 -43 176 0 3 50 69 112 145 326 406 659 689 930 791 85 32 110 36 360
60 148 14 271 23 273 21 2 -2 5 -322 6 -710 l2 -707 -247 -252 -246 -252 -132
16 c-125 16 -134 16 -149 -1 -35 -36 -32 -55 21 -125 80 -106 245 -238 367
-294 176 -81 344 -69 499 33 126 83 197 181 223 302 15 71 14 109 -5 198 -14
72 -14 85 10 282 14 114 78 628 141 1142 63 514 117 952 120 972 7 54 -15 71
-148 112 -128 41 -153 42 -217 15z m184 -115 c32 -10 61 -24 64 -32 2 -7 -3
-71 -12 -140 -9 -70 -68 -539 -131 -1041 -64 -503 -117 -916 -119 -918 -2 -2
-26 32 -55 75 l-51 79 -7 844 -6 844 113 158 c81 114 117 156 129 153 9 -3 42
-13 75 -22z m-276 -42 c-1 -4 -27 -42 -57 -85 l-55 -77 -160 0 -161 1 165 65
c91 35 185 73 210 83 51 22 63 25 58 13z m-158 -367 l0 -94 -32 -5 c-18 -3
-136 -15 -263 -26 -126 -11 -256 -26 -287 -35 -166 -43 -340 -143 -545 -312
-152 -126 -406 -392 -551 -577 -12 -16 -24 -27 -26 -25 -4 5 -106 387 -106
398 0 4 9 7 21 8 11 1 55 33 97 70 383 341 755 571 1040 645 117 30 227 39
575 46 l77 2 0 -95z m-2017 -518 c20 -15 44 -42 53 -60 12 -23 264 -962 264
-984 0 -2 -202 -2 -449 -1 l-449 3 -27 25 c-15 14 -90 130 -166 258 -77 127
-145 232 -150 232 -7 0 -9 78 -7 218 l3 219 27 41 c16 23 45 50 65 61 36 20
55 20 419 18 l381 -2 36 -28z m-1025 -588 c13 -8 84 -115 159 -239 144 -239
174 -279 238 -313 39 -22 49 -22 645 -27 449 -4 610 -8 626 -17 26 -15 54 -71
54 -108 0 -39 -35 -90 -74 -109 -31 -14 -152 -16 -1228 -16 -1116 0 -1195 1
-1227 18 -50 25 -73 61 -72 113 0 57 128 627 147 656 28 44 48 48 299 54 322
8 405 6 433 -12z m3165 -671 c87 -132 122 -241 115 -350 -7 -91 -43 -162 -118
-231 -125 -116 -246 -143 -402 -90 -89 31 -188 91 -273 168 l-50 44 85 -6 85
-6 255 261 c140 144 258 261 262 261 3 1 22 -23 41 -51z"/>
<path d="M1760 2827 c-25 -13 -58 -43 -75 -66 -29 -42 -30 -46 -33 -178 -3
-117 -1 -137 14 -154 21 -23 57 -25 78 -3 13 12 16 40 16 135 0 120 0 121 29
150 l29 29 206 0 c202 0 205 0 233 -24 25 -22 36 -56 108 -332 76 -295 81
-309 108 -322 24 -12 31 -11 53 2 15 10 24 26 24 41 0 39 -150 605 -171 647
-11 21 -38 50 -61 65 l-41 28 -236 3 c-232 3 -237 3 -281 -21z"/>
<path d="M485 1261 c-153 -7 -162 -9 -233 -75 -70 -64 -92 -121 -92 -238 0
-151 48 -243 155 -301 l40 -22 1470 0 1470 0 52 24 c64 29 117 85 150 160 52
116 26 284 -57 370 -72 74 -69 74 -415 82 -353 9 -2327 8 -2540 0z m2849 -135
c53 -40 76 -95 76 -181 0 -86 -23 -141 -76 -181 l-37 -29 -1447 -3 -1446 -2
-45 23 c-133 70 -133 314 0 384 l45 23 1446 -2 1447 -3 37 -29z"/>
<path d="M3006 1097 c-132 -75 -104 -287 43 -327 70 -19 158 27 187 97 65 155
-90 310 -230 230z m116 -104 c36 -32 12 -113 -34 -113 -10 0 -27 9 -38 20 -54
54 15 145 72 93z"/>
<path d="M420 1102 c-63 -28 -100 -88 -100 -160 0 -101 58 -171 149 -180 54
-5 91 10 132 55 52 55 62 130 28 200 -29 61 -80 93 -144 92 -27 0 -57 -3 -65
-7z m100 -112 c39 -39 14 -110 -40 -110 -48 0 -69 72 -33 112 21 24 48 23 73
-2z"/>
</g>
</svg>
